<svg width="439" height="116" viewBox="0 0 439 116" fill="none" xmlns="http://www.w3.org/2000/svg">
<path d="M315.744 50.2728C315.744 48.4396 318.252 46.9535 321.346 46.9535C324.44 46.9535 326.949 48.4396 326.949 50.2728V111.681C326.949 113.514 324.44 115 321.346 115C318.252 115 315.744 113.514 315.744 111.681V50.2728Z" fill="url(#paint0_linear_675_14281)" fill-opacity="0.08"/>
<path d="M270.923 59.401C270.923 57.5678 273.431 56.0817 276.526 56.0817C279.62 56.0817 282.128 57.5678 282.128 59.401V111.681C282.128 113.514 279.62 115 276.526 115C273.431 115 270.923 113.514 270.923 111.681V59.401Z" fill="url(#paint1_linear_675_14281)" fill-opacity="0.08"/>
<path d="M254.115 59.401C251.021 59.401 248.513 60.8871 248.513 62.7204V111.681C248.513 113.514 251.021 115 254.115 115C257.21 115 259.718 113.514 259.718 111.681V62.7204C259.718 60.8871 257.21 59.401 254.115 59.401Z" fill="url(#paint2_linear_675_14281)" fill-opacity="0.08"/>
<path d="M91.641 74.3381C91.641 72.5048 94.1494 71.0187 97.2436 71.0187C100.338 71.0187 102.846 72.5048 102.846 74.3381V111.681C102.846 113.514 100.338 115 97.2436 115C94.1494 115 91.641 113.514 91.641 111.681V74.3381Z" fill="url(#paint3_linear_675_14281)" fill-opacity="0.08"/>
<path d="M2 87.6154C2 85.7822 4.50835 84.2961 7.60256 84.2961C10.6968 84.2961 13.2051 85.7822 13.2051 87.6154V111.681C13.2051 113.514 10.6968 115 7.60256 115C4.50835 115 2 113.514 2 111.681V87.6154Z" fill="url(#paint4_linear_675_14281)" fill-opacity="0.08"/>
<path d="M30.0128 84.2961C26.9186 84.2961 24.4103 85.7822 24.4103 87.6154V111.681C24.4103 113.514 26.9186 115 30.0128 115C33.107 115 35.6154 113.514 35.6154 111.681V87.6154C35.6154 85.7822 33.107 84.2961 30.0128 84.2961Z" fill="url(#paint5_linear_675_14281)" fill-opacity="0.08"/>
<path d="M46.8205 96.7436C46.8205 94.9104 49.3289 93.4243 52.4231 93.4243C55.5173 93.4243 58.0256 94.9104 58.0256 96.7436V111.681C58.0256 113.514 55.5173 115 52.4231 115C49.3289 115 46.8205 113.514 46.8205 111.681V96.7436Z" fill="url(#paint6_linear_675_14281)" fill-opacity="0.08"/>
<path d="M74.8333 84.2961C71.7391 84.2961 69.2308 85.7822 69.2308 87.6154V111.681C69.2308 113.514 71.7391 115 74.8333 115C77.9275 115 80.4359 113.514 80.4359 111.681V87.6154C80.4359 85.7822 77.9275 84.2961 74.8333 84.2961Z" fill="url(#paint7_linear_675_14281)" fill-opacity="0.08"/>
<path d="M119.654 84.2961C116.56 84.2961 114.051 85.7822 114.051 87.6154V111.681C114.051 113.514 116.56 115 119.654 115C122.748 115 125.256 113.514 125.256 111.681V87.6154C125.256 85.7822 122.748 84.2961 119.654 84.2961Z" fill="url(#paint8_linear_675_14281)" fill-opacity="0.08"/>
<path d="M136.462 95.0839C136.462 93.2507 138.97 91.7646 142.064 91.7646C145.158 91.7646 147.667 93.2507 147.667 95.0839V111.681C147.667 113.514 145.158 115 142.064 115C138.97 115 136.462 113.514 136.462 111.681V95.0839Z" fill="url(#paint9_linear_675_14281)" fill-opacity="0.08"/>
<path d="M164.474 84.2961C161.38 84.2961 158.872 85.7822 158.872 87.6154V111.681C158.872 113.514 161.38 115 164.474 115C167.569 115 170.077 113.514 170.077 111.681V87.6154C170.077 85.7822 167.569 84.2961 164.474 84.2961Z" fill="url(#paint10_linear_675_14281)" fill-opacity="0.08"/>
<path d="M181.282 80.1469C181.282 78.3137 183.79 76.8276 186.885 76.8276C189.979 76.8276 192.487 78.3137 192.487 80.1469V111.681C192.487 113.514 189.979 115 186.885 115C183.79 115 181.282 113.514 181.282 111.681V80.1469Z" fill="url(#paint11_linear_675_14281)" fill-opacity="0.08"/>
<path d="M209.295 73.5082C206.201 73.5082 203.692 74.9943 203.692 76.8276V111.681C203.692 113.514 206.201 115 209.295 115C212.389 115 214.897 113.514 214.897 111.681V76.8276C214.897 74.9943 212.389 73.5082 209.295 73.5082Z" fill="url(#paint12_linear_675_14281)" fill-opacity="0.08"/>
<path d="M226.103 87.6154C226.103 85.7822 228.611 84.2961 231.705 84.2961C234.799 84.2961 237.308 85.7822 237.308 87.6154V111.681C237.308 113.514 234.799 115 231.705 115C228.611 115 226.103 113.514 226.103 111.681V87.6154Z" fill="url(#paint13_linear_675_14281)" fill-opacity="0.08"/>
<path d="M298.936 67.6994C295.842 67.6994 293.333 69.1855 293.333 71.0187V111.681C293.333 113.514 295.842 115 298.936 115C302.03 115 304.538 113.514 304.538 111.681V71.0187C304.538 69.1855 302.03 67.6994 298.936 67.6994Z" fill="url(#paint14_linear_675_14281)" fill-opacity="0.08"/>
<path d="M343.756 59.401C340.662 59.401 338.154 60.8871 338.154 62.7204V111.681C338.154 113.514 340.662 115 343.756 115C346.851 115 349.359 113.514 349.359 111.681V62.7204C349.359 60.8871 346.851 59.401 343.756 59.401Z" fill="url(#paint15_linear_675_14281)" fill-opacity="0.08"/>
<path d="M360.564 53.5922C360.564 51.7589 363.072 50.2728 366.167 50.2728C369.261 50.2728 371.769 51.7589 371.769 53.5922V111.681C371.769 113.514 369.261 115 366.167 115C363.072 115 360.564 113.514 360.564 111.681V53.5922Z" fill="url(#paint16_linear_675_14281)" fill-opacity="0.08"/>
<path d="M388.577 54.5956C385.483 54.5956 382.974 56.0817 382.974 57.9149V111.681C382.974 113.514 385.483 115 388.577 115C391.671 115 394.179 113.514 394.179 111.681V57.9149C394.179 56.0817 391.671 54.5956 388.577 54.5956Z" fill="url(#paint17_linear_675_14281)" fill-opacity="0.08"/>
<path d="M405.385 53.5922C405.385 51.7589 407.893 50.2728 410.987 50.2728C414.081 50.2728 416.59 51.7589 416.59 53.5922V111.681C416.59 113.514 414.081 115 410.987 115C407.893 115 405.385 113.514 405.385 111.681V53.5922Z" fill="url(#paint18_linear_675_14281)" fill-opacity="0.08"/>
<path d="M433.397 39C430.303 39 427.795 40.4861 427.795 42.3193L427.795 111.681C427.795 113.514 430.303 115 433.397 115C436.492 115 439 113.514 439 111.681L439 42.3193C439 40.4861 436.492 39 433.397 39Z" fill="url(#paint19_linear_675_14281)" fill-opacity="0.08"/>
<path d="M410.83 24.5001L408.56 22.2301C408.63 21.8101 408.74 21.4201 408.88 21.0801C408.99 20.8201 409.03 20.5201 408.97 20.2101C408.84 19.4901 408.14 18.9901 407.4 19.0001C405.81 19.0301 404.4 19.8101 403.5 21.0001H398.5C395.46 21.0001 393 23.4601 393 26.5001C393 28.7501 394.37 33.9801 395.08 36.5401C395.32 37.4001 396.11 38.0001 397.01 38.0001H399C400.1 38.0001 401 37.1001 401 36.0001H403C403 37.1001 403.9 38.0001 405 38.0001H407.01C407.89 38.0001 408.67 37.4201 408.93 36.5701L410.18 32.4101L412.32 31.6901C412.73 31.5501 413 31.1701 413 30.7401V25.5001C413 24.9501 412.55 24.5001 412 24.5001H410.83ZM403 26.0001H400C399.45 26.0001 399 25.5501 399 25.0001C399 24.4501 399.45 24.0001 400 24.0001H403C403.55 24.0001 404 24.4501 404 25.0001C404 25.5501 403.55 26.0001 403 26.0001ZM407 28.0001C406.45 28.0001 406 27.5501 406 27.0001C406 26.4501 406.45 26.0001 407 26.0001C407.55 26.0001 408 26.4501 408 27.0001C408 27.5501 407.55 28.0001 407 28.0001Z" fill="#CE1335"/>
<path d="M439 25L428.654 30.1279L438.268 36.5238L439 25ZM1 107.02C0.321731 107.755 0.322589 107.756 0.32348 107.756C0.323822 107.757 0.324747 107.758 0.32543 107.758C0.326797 107.759 0.328299 107.761 0.329936 107.762C0.333211 107.765 0.337028 107.769 0.341399 107.773C0.350141 107.78 0.361096 107.79 0.374348 107.801C0.400854 107.824 0.436544 107.854 0.482094 107.89C0.573199 107.963 0.703698 108.063 0.878996 108.184C1.22961 108.428 1.7592 108.761 2.51102 109.153C4.01437 109.938 6.40709 110.96 10.0368 111.973C17.2929 113.999 29.5158 116 49.51 116V114C29.6396 114 17.6074 112.011 10.5747 110.047C7.06 109.065 4.79984 108.092 3.43642 107.38C2.75486 107.025 2.29759 106.734 2.01969 106.541C1.88073 106.445 1.78655 106.373 1.73155 106.329C1.70405 106.307 1.68633 106.292 1.67769 106.284C1.67336 106.281 1.67131 106.279 1.67144 106.279C1.6715 106.279 1.67211 106.279 1.67325 106.281C1.67382 106.281 1.67453 106.282 1.67536 106.282C1.67578 106.283 1.67651 106.283 1.67672 106.284C1.67748 106.284 1.67827 106.285 1 107.02ZM49.51 116C69.6341 116 86.2266 110.338 100.781 104.723C108.078 101.908 114.813 99.125 121.277 97.0344C127.73 94.9476 133.831 93.5798 139.806 93.5798V91.5798C133.534 91.5798 127.207 93.0146 120.661 95.1315C114.127 97.2447 107.294 100.067 100.062 102.857C85.5584 108.452 69.2506 114 49.51 114V116ZM139.806 93.5798C151.867 93.5798 161.788 97.1277 173.429 100.755C185.055 104.376 198.254 108.02 216.653 108.02V106.02C198.55 106.02 185.573 102.443 174.024 98.8451C162.491 95.252 152.24 91.5798 139.806 91.5798V93.5798ZM216.653 108.02C235.375 108.02 247.525 96.3948 257.857 85.0842C263.062 79.3857 267.766 73.8124 272.686 69.6269C277.585 65.4586 282.554 62.7995 288.218 62.7995V60.7995C281.874 60.7995 276.456 63.793 271.39 68.1036C266.343 72.3968 261.501 78.1287 256.38 83.7353C246.059 95.0349 234.434 106.02 216.653 106.02V108.02ZM288.218 62.7995C299.853 62.7995 307.172 68.381 314.935 74.1903C322.686 79.9898 330.846 85.9797 343.932 85.9797V83.9797C331.563 83.9797 323.873 78.3796 316.134 72.589C308.408 66.8081 300.597 60.7995 288.218 60.7995V62.7995ZM343.932 85.9797C350.588 85.9797 356.173 83.3148 361.108 79.4108C366.023 75.5216 370.35 70.3559 374.486 65.2813C378.652 60.17 382.613 55.1674 386.873 51.4237C391.119 47.6931 395.545 45.3194 400.607 45.3194V43.3194C394.863 43.3194 389.983 46.0282 385.553 49.9214C381.138 53.8016 377.055 58.964 372.935 64.0178C368.786 69.1083 364.587 74.1077 359.867 77.8423C355.165 81.5621 350.005 83.9797 343.932 83.9797V85.9797ZM400.607 45.3194C405.421 45.3194 408.988 45.8836 411.879 46.4126C414.718 46.932 417.099 47.4667 419.313 47.2896C421.631 47.1041 423.719 46.1581 426.122 43.9504C428.49 41.7746 431.215 38.3266 434.837 33.0625L433.19 31.9287C429.577 37.1783 426.959 40.4652 424.768 42.4777C422.613 44.4583 420.928 45.154 419.153 45.296C417.274 45.4464 415.24 44.9944 412.239 44.4452C409.29 43.9056 405.591 43.3194 400.607 43.3194V45.3194Z" fill="url(#paint20_linear_675_14281)"/>
<defs>
<linearGradient id="paint0_linear_675_14281" x1="478.218" y1="72.6784" x2="478.218" y2="115" gradientUnits="userSpaceOnUse">
<stop/>
<stop offset="1" stop-opacity="0"/>
</linearGradient>
<linearGradient id="paint1_linear_675_14281" x1="478.218" y1="72.6784" x2="478.218" y2="115" gradientUnits="userSpaceOnUse">
<stop/>
<stop offset="1" stop-opacity="0"/>
</linearGradient>
<linearGradient id="paint2_linear_675_14281" x1="478.218" y1="72.6784" x2="478.218" y2="115" gradientUnits="userSpaceOnUse">
<stop/>
<stop offset="1" stop-opacity="0"/>
</linearGradient>
<linearGradient id="paint3_linear_675_14281" x1="478.218" y1="72.6784" x2="478.218" y2="115" gradientUnits="userSpaceOnUse">
<stop/>
<stop offset="1" stop-opacity="0"/>
</linearGradient>
<linearGradient id="paint4_linear_675_14281" x1="478.218" y1="72.6784" x2="478.218" y2="115" gradientUnits="userSpaceOnUse">
<stop/>
<stop offset="1" stop-opacity="0"/>
</linearGradient>
<linearGradient id="paint5_linear_675_14281" x1="478.218" y1="72.6784" x2="478.218" y2="115" gradientUnits="userSpaceOnUse">
<stop/>
<stop offset="1" stop-opacity="0"/>
</linearGradient>
<linearGradient id="paint6_linear_675_14281" x1="478.218" y1="72.6784" x2="478.218" y2="115" gradientUnits="userSpaceOnUse">
<stop/>
<stop offset="1" stop-opacity="0"/>
</linearGradient>
<linearGradient id="paint7_linear_675_14281" x1="478.218" y1="72.6784" x2="478.218" y2="115" gradientUnits="userSpaceOnUse">
<stop/>
<stop offset="1" stop-opacity="0"/>
</linearGradient>
<linearGradient id="paint8_linear_675_14281" x1="478.218" y1="72.6784" x2="478.218" y2="115" gradientUnits="userSpaceOnUse">
<stop/>
<stop offset="1" stop-opacity="0"/>
</linearGradient>
<linearGradient id="paint9_linear_675_14281" x1="478.218" y1="72.6784" x2="478.218" y2="115" gradientUnits="userSpaceOnUse">
<stop/>
<stop offset="1" stop-opacity="0"/>
</linearGradient>
<linearGradient id="paint10_linear_675_14281" x1="478.218" y1="72.6784" x2="478.218" y2="115" gradientUnits="userSpaceOnUse">
<stop/>
<stop offset="1" stop-opacity="0"/>
</linearGradient>
<linearGradient id="paint11_linear_675_14281" x1="478.218" y1="72.6784" x2="478.218" y2="115" gradientUnits="userSpaceOnUse">
<stop/>
<stop offset="1" stop-opacity="0"/>
</linearGradient>
<linearGradient id="paint12_linear_675_14281" x1="478.218" y1="72.6784" x2="478.218" y2="115" gradientUnits="userSpaceOnUse">
<stop/>
<stop offset="1" stop-opacity="0"/>
</linearGradient>
<linearGradient id="paint13_linear_675_14281" x1="478.218" y1="72.6784" x2="478.218" y2="115" gradientUnits="userSpaceOnUse">
<stop/>
<stop offset="1" stop-opacity="0"/>
</linearGradient>
<linearGradient id="paint14_linear_675_14281" x1="478.218" y1="72.6784" x2="478.218" y2="115" gradientUnits="userSpaceOnUse">
<stop/>
<stop offset="1" stop-opacity="0"/>
</linearGradient>
<linearGradient id="paint15_linear_675_14281" x1="478.218" y1="72.6784" x2="478.218" y2="115" gradientUnits="userSpaceOnUse">
<stop/>
<stop offset="1" stop-opacity="0"/>
</linearGradient>
<linearGradient id="paint16_linear_675_14281" x1="478.218" y1="72.6784" x2="478.218" y2="115" gradientUnits="userSpaceOnUse">
<stop/>
<stop offset="1" stop-opacity="0"/>
</linearGradient>
<linearGradient id="paint17_linear_675_14281" x1="478.218" y1="72.6784" x2="478.218" y2="115" gradientUnits="userSpaceOnUse">
<stop/>
<stop offset="1" stop-opacity="0"/>
</linearGradient>
<linearGradient id="paint18_linear_675_14281" x1="478.218" y1="72.6784" x2="478.218" y2="115" gradientUnits="userSpaceOnUse">
<stop/>
<stop offset="1" stop-opacity="0"/>
</linearGradient>
<linearGradient id="paint19_linear_675_14281" x1="478.218" y1="72.6784" x2="478.218" y2="115" gradientUnits="userSpaceOnUse">
<stop/>
<stop offset="1" stop-opacity="0"/>
</linearGradient>
<linearGradient id="paint20_linear_675_14281" x1="439" y1="70" x2="10.655" y2="128.702" gradientUnits="userSpaceOnUse">
<stop stop-color="#CE1335"/>
<stop offset="0.55" stop-color="#CE1335"/>
<stop offset="1" stop-color="#CE1335" stop-opacity="0"/>
</linearGradient>
</defs>
</svg>
