<?xml version="1.0" encoding="utf-8"?>
<!-- Generator: Adobe Illustrator 28.3.0, SVG Export Plug-In . SVG Version: 6.00 Build 0)  -->
<svg version="1.1" id="Capa_1" xmlns="http://www.w3.org/2000/svg" xmlns:xlink="http://www.w3.org/1999/xlink" x="0px" y="0px"
	 viewBox="0 0 140 24" style="enable-background:new 0 0 140 24;" xml:space="preserve">
<style type="text/css">
	.st0{fill-rule:evenodd;clip-rule:evenodd;fill:#CE1336;}
	.st1{fill:#CE1336;}
</style>
<path class="st0" d="M23.5,23.8H0V0.2h23.5V23.8z M15.2,19.8l1.8,0l-0.4-1.5l4.4,0.1L19.6,14l1.3,0.1l-0.5-1.6l-2.8-0.2l1.2,4.3
	l-2.7-0.1l-0.9-3.5L13.5,13L15.2,19.8z M12.4,18.2l0.3,1.5l1.8,0l-1.6-6.8l-1.7-0.1l0.8,3.6l-3-0.1L8,11.6l-3.5-0.3l0.3,1.8l1.6,0.1
	l0.9,4.9L12.4,18.2z M5.7,9.2L4.2,9.1l0.3,1.7L7.9,11L7.1,6.8l2.8,0.3l0.7,3.2l1.7,0.1l-1.4-5.8L9.3,4.4l0.3,1.2L5,5.1L5.7,9.2z
	 M13.4,6.1l-0.3-1.2l-1.6-0.2l1.4,5.8l1.7,0.1l-0.8-3.1l2.5,0.3l1.1,4l2.8,0.2l-0.5-1.5l-1.2-0.1l-1.1-3.8L13.4,6.1z"/>
<path class="st0" d="M31.9,0.2h0.9l3.3,6.2h-0.9l-0.9-1.7h-4.2l-0.9,1.7h-0.8L31.9,0.2z M32.3,0.8l-1.8,3.4h3.6L32.3,0.8z"/>
<path class="st0" d="M77,7.4h-7.6v16.3H77c2.8,0,7.7-0.6,7.7-4.7c0-2-2-3.5-5-3.7v0c2.6-0.4,4.3-1.7,4.3-3.6C84,8.1,79.8,7.4,77,7.4
	z M75.8,21.2h-2.1v-4.7h2.1c2.2,0,4.5,0.3,4.5,2.4C80.3,20.8,77.8,21.2,75.8,21.2z M75.5,14h-1.8v-4h1.7c2,0,4.2,0.1,4.2,2
	C79.6,13.7,77.4,14,75.5,14z"/>
<path class="st1" d="M32.8,7.5h-4.3v16.3h4.3v-7.1h8.6v7.1h4.3V7.5h-4.3V14h-8.6V7.5z"/>
<path class="st0" d="M54.8,7.5h5l8.6,16.3h-4.9L61.6,20h-8.9l-1.9,3.7h-4.6L54.8,7.5z M56.8,10.7L56.8,10.7l-2.9,6.7h5.7L56.8,10.7z
	"/>
<path class="st1" d="M90.9,7.5h-4.4v16.3h4.4V7.5z"/>
<path class="st1" d="M92.9,10h6.2v13.7h4.4V10h6.2V7.5H92.9V10z"/>
<path class="st0" d="M113.9,7.5h4.9l8.5,16.3h-4.8l-1.9-3.7h-8.8l-1.9,3.7h-4.5L113.9,7.5z M116.3,10.7L116.3,10.7l-3.2,6.7h6.3
	L116.3,10.7z"/>
<path class="st1" d="M123,10h6.3v13.7h4.4V10h4.2l2.1-2.6h-17V10z"/>
<path class="st1" d="M40.4,0.2h-4v6.2h0.8V3.5h3V3h-3V0.8h3.1V0.2z"/>
<path class="st0" d="M41.3,0.2h2c1.6,0,2.6,0.6,2.6,1.8c0,1.2-1.2,1.8-2.7,1.8h-1.1v2.7h-0.8V0.2z M42.1,3.2h0.6
	c1.2,0,2.4-0.1,2.4-1.2c0-0.8-0.6-1.2-1.6-1.2h-1.3V3.2z"/>
</svg>
