<?xml version="1.0" encoding="utf-8"?>
<!-- Generator: Adobe Illustrator 28.3.0, SVG Export Plug-In . SVG Version: 6.00 Build 0)  -->
<svg version="1.1" id="Capa_1" xmlns="http://www.w3.org/2000/svg" xmlns:xlink="http://www.w3.org/1999/xlink" x="0px" y="0px"
	 viewBox="0 0 140 24.2" style="enable-background:new 0 0 140 24.2;" xml:space="preserve">
<style type="text/css">
	.st0{fill-rule:evenodd;clip-rule:evenodd;fill:#FFFFFF;}
	.st1{fill:#FFFFFF;}
</style>
<path class="st0" d="M23.5,23.6H0V0h23.5V23.6z M15.2,19.6l1.8,0l-0.4-1.5l4.4,0.1l-1.3-4.4l1.3,0.1l-0.5-1.6l-2.8-0.2l1.2,4.3
	l-2.7-0.1l-0.9-3.5l-1.7-0.1L15.2,19.6z M12.4,18l0.3,1.5l1.8,0l-1.6-6.8l-1.7-0.1l0.8,3.6l-3-0.1L8,11.4l-3.5-0.3l0.3,1.8L6.4,13
	l0.9,4.9L12.4,18z M5.7,9L4.2,8.8l0.3,1.7l3.5,0.3L7.1,6.6l2.8,0.3l0.7,3.2l1.7,0.1l-1.4-5.8L9.3,4.2l0.3,1.2L5,4.8L5.7,9z
	 M13.4,5.9l-0.3-1.2l-1.6-0.2l1.4,5.8l1.7,0.1l-0.8-3.1l2.5,0.3l1.1,4l2.8,0.2l-0.5-1.5l-1.2-0.1l-1.1-3.8L13.4,5.9z"/>
<path class="st0" d="M31.9,0h0.9l3.3,6.2h-0.9l-0.9-1.7h-4.2l-0.9,1.7h-0.8L31.9,0z M32.3,0.6L30.4,4h3.6L32.3,0.6z"/>
<path class="st0" d="M77,7.2h-7.6v16.3H77c2.8,0,7.7-0.6,7.7-4.7c0-2-2-3.5-5-3.7v0c2.6-0.4,4.3-1.7,4.3-3.6C84,7.8,79.8,7.2,77,7.2
	z M75.8,20.9h-2.1v-4.7h2.1c2.2,0,4.5,0.3,4.5,2.4C80.3,20.6,77.8,20.9,75.8,20.9z M75.5,13.8h-1.8v-4h1.7c2,0,4.2,0.1,4.2,2
	C79.6,13.5,77.4,13.8,75.5,13.8z"/>
<path class="st1" d="M32.8,7.2h-4.3v16.3h4.3v-7.1h8.6v7.1h4.3V7.2h-4.3v6.6h-8.6V7.2z"/>
<path class="st0" d="M54.8,7.2h5l8.6,16.3h-4.9l-1.9-3.7h-8.9l-1.9,3.7h-4.6L54.8,7.2z M56.8,10.5L56.8,10.5l-2.9,6.7h5.7L56.8,10.5
	z"/>
<path class="st1" d="M90.9,7.2h-4.4v16.3h4.4V7.2z"/>
<path class="st1" d="M92.9,9.8h6.2v13.7h4.4V9.8h6.2V7.2H92.9V9.8z"/>
<path class="st0" d="M113.9,7.2h4.9l8.5,16.3h-4.8l-1.9-3.7h-8.8l-1.9,3.7h-4.5L113.9,7.2z M116.3,10.5L116.3,10.5l-3.2,6.7h6.3
	L116.3,10.5z"/>
<path class="st1" d="M123,9.8h6.3v13.7h4.4V9.8h4.2l2.1-2.6h-17V9.8z"/>
<path class="st1" d="M40.4,0h-4v6.2h0.8V3.3h3V2.8h-3V0.5h3.1V0z"/>
<path class="st0" d="M41.3,0h2c1.6,0,2.6,0.6,2.6,1.8c0,1.2-1.2,1.8-2.7,1.8h-1.1v2.7h-0.8V0z M42.1,3h0.6c1.2,0,2.4-0.1,2.4-1.2
	c0-0.8-0.6-1.2-1.6-1.2h-1.3V3z"/>
</svg>
