<svg width="110" height="19" viewBox="0 0 110 19" fill="none" xmlns="http://www.w3.org/2000/svg">
<path fill-rule="evenodd" clip-rule="evenodd" d="M18.4807 18.5204H0V0H18.4807V18.5204ZM11.9223 15.3748L13.305 15.3912L13.0037 14.2341L16.443 14.3227L15.4181 10.8677L16.4214 10.9304L16.0395 9.69838L13.8148 9.52938L14.7724 12.9203L12.6392 12.8344L11.9398 10.1222L10.619 10.0323L11.9223 15.3748ZM9.71244 14.1496L9.98279 15.3462L11.4274 15.3721L10.1415 10.0023L8.77362 9.9069L9.39502 12.7049L7.00759 12.6054L6.29069 8.96105L3.55894 8.7498L3.7876 10.1427L5.05461 10.2231L5.74461 14.0474L9.71244 14.1496ZM4.49105 7.05572L3.26304 6.94396L3.48362 8.27551L6.20058 8.49494L5.55093 5.17356L7.77157 5.42433L8.33245 7.92797L9.67613 8.04518L8.58531 3.48493L7.3035 3.3132L7.50794 4.23725L3.90865 3.79976L4.49105 7.05572ZM10.5087 4.61068L10.2733 3.70708L9.0359 3.54353L10.1429 8.08607L11.4395 8.20055L10.81 5.76233L12.8087 5.98993L13.6897 9.09461L15.9063 9.27315L15.5418 8.08743L14.5599 7.99612L13.6695 4.99911L10.5087 4.61068Z" fill="white"/>
<path fill-rule="evenodd" clip-rule="evenodd" d="M25.0299 0.00378099H25.7683L28.3871 4.88704H27.7065L26.9977 3.57866H23.6687L22.9586 4.88704H22.3251L25.0299 0.00378099ZM25.3514 0.464441L23.9135 3.15889H26.7784L25.3514 0.464441Z" fill="white"/>
<path fill-rule="evenodd" clip-rule="evenodd" d="M60.4884 5.68472H54.4936V18.4714H60.4884C62.6512 18.4714 66.5329 17.9958 66.5329 14.7712C66.5329 13.197 64.935 12.0236 62.6014 11.8586V11.8232C64.6405 11.5479 66.0164 10.4848 66.0164 8.96385C66.0164 6.16173 62.6996 5.68472 60.4884 5.68472ZM59.5563 16.4571H57.9342V12.7554H59.5563C61.2752 12.7554 63.095 13.0117 63.095 14.6798C63.095 16.164 61.1541 16.4571 59.5563 16.4571ZM59.3343 10.8501H57.9342V7.69908H59.2603C60.834 7.69908 62.5785 7.80947 62.5785 9.29367C62.5785 10.613 60.7843 10.8501 59.3343 10.8501Z" fill="white"/>
<path d="M25.7815 5.68661H22.4109V18.4733H25.7815V12.8677H32.5228V18.4733H35.8948V5.68661H32.5228V10.852H25.7815V5.68661Z" fill="white"/>
<path fill-rule="evenodd" clip-rule="evenodd" d="M43.0413 5.68661H46.9433L53.7128 18.4747H49.8848L48.4026 15.5444H41.4112L39.9047 18.4747H36.3216L43.0413 5.68661ZM44.6433 8.25158H44.5989L42.3634 13.5274H46.8787L44.6433 8.25158Z" fill="white"/>
<path d="M71.4583 5.68661H67.9976V18.4747H71.4583V5.68661Z" fill="white"/>
<path d="M72.9753 7.70233H77.8604V18.4733H81.2808V7.70233H86.1673V5.68661H72.9753V7.70233Z" fill="white"/>
<path fill-rule="evenodd" clip-rule="evenodd" d="M89.4632 5.68661H93.322L100.014 18.4747H96.2273L94.7626 15.5444H87.8505L86.3602 18.4747H82.8187L89.4632 5.68661ZM91.3435 8.25158H91.2951L88.827 13.5274H93.809L91.3435 8.25158Z" fill="white"/>
<path d="M96.6735 7.70233H101.61V18.4733H105.064V7.70233H108.328L110 5.68661H96.6735V7.70233Z" fill="white"/>
<path d="M31.7425 0.00378099H28.6274V4.88704H29.2744V2.58511H31.6295V2.16534H29.2744V0.423554H31.7425V0.00378099Z" fill="white"/>
<path fill-rule="evenodd" clip-rule="evenodd" d="M32.4199 0.00378099H34.0272C35.2512 0.00378099 36.0461 0.464441 36.0461 1.38849C36.0461 2.29754 35.1301 2.77319 33.9613 2.77319H33.0641V4.88704H32.4199V0.00378099ZM33.0655 2.35478H33.5134C34.4858 2.35478 35.4018 2.27028 35.4018 1.38985C35.4018 0.773818 34.9351 0.424917 34.1119 0.424917H33.0655V2.35478Z" fill="white"/>
</svg>
