<svg width="375" height="181" viewBox="0 0 375 181" fill="none" xmlns="http://www.w3.org/2000/svg">
<g clip-path="url(#clip0_750_13189)">
<path d="M-189.535 50.5378L-426.647 22.1188C-426.647 22.1188 -447.048 18.5006 -457.386 32.1948C-467.724 45.889 -462.297 63.7057 -462.297 63.7057L-425.879 264.426C-425.879 264.426 -420.968 282.769 -432.073 293.36C-443.178 303.952 -451.444 303.688 -455.314 303.436C-459.184 303.184 -490.702 299.818 -490.702 299.818C-490.702 299.818 -505.94 297.231 -517.308 312.218C-517.308 312.218 -525.059 319.192 -522.471 335.726C-519.884 352.259 -492.247 515.515 -492.247 515.515C-492.247 515.515 -488.63 538.507 -462.549 540.053C-436.458 541.599 -399.788 543.671 -399.788 543.671C-399.788 543.671 -374.738 542.125 -369.564 571.575C-364.401 601.025 -316.614 861.148 -316.614 861.148C-316.614 861.148 -314.29 885.686 -284.066 886.201C-253.842 886.717 17.868 893.438 17.868 893.438C17.868 893.438 43.6961 894.468 48.0921 913.59C52.4882 932.7 63.3302 978.168 63.3302 978.168C63.3302 978.168 66.4327 1000.9 96.1306 1000.9C125.828 1000.9 285.193 1004 285.193 1004C285.193 1004 303.27 1003.48 311.284 987.466C311.284 987.466 316.963 974.55 312.062 963.696L305.09 937.086C305.09 937.086 303.281 919.774 312.841 911.77C322.4 903.766 329.888 902.472 338.406 902.724C346.924 902.977 565.958 908.404 565.958 908.404C565.958 908.404 582.49 906.858 587.916 897.813C593.343 888.767 596.697 880.763 594.11 871.981C591.523 863.199 525.144 643.631 525.144 643.631C525.144 643.631 519.191 623.808 534.44 611.857C544.679 603.831 551.794 605.191 556.596 605.399C560.839 605.586 565.881 605.597 569.97 604.456C577.458 602.362 587.379 596.836 590.492 582.923C590.492 582.923 592.554 575.686 589.199 564.58C585.844 553.473 541.676 416.301 541.676 416.301C541.676 416.301 538.573 393.572 513.26 390.733L468.313 386.862C468.313 386.862 449.973 388.924 440.161 368.519L372.489 140.685C372.489 140.685 368.356 118.208 346.661 115.632C324.966 113.055 98.7068 85.4037 98.7068 85.4037C98.7068 85.4037 78.3052 81.5333 74.4244 62.4119C70.5436 43.2905 65.1281 21.8556 65.1281 21.8556C65.1281 21.8556 62.0256 2.48202 32.5799 -0.620831C3.13414 -3.72368 -122.388 -20.5098 -122.388 -20.5098C-122.388 -20.5098 -136.848 -23.8648 -147.953 -13.0213C-159.059 -2.16677 -157.765 9.70738 -156.998 13.8409C-156.219 17.9743 -153.128 31.6685 -163.455 41.7445C-173.782 51.8206 -185.665 51.8206 -189.546 50.5268L-189.535 50.5378Z" fill="white"/>
</g>
<defs>
<clipPath id="clip0_750_13189">
<rect width="375" height="181" fill="white"/>
</clipPath>
</defs>
</svg>
